<svg xmlns="http://www.w3.org/2000/svg" id="Layer_1" viewBox="0 0 16 16"><linearGradient id="SVGID_1_" x1="1.063" x2="12.34" y1="8" y2="8" gradientUnits="userSpaceOnUse"><stop offset="0" stop-color="#2B2F82"/><stop offset="1" stop-color="#BF509D"/></linearGradient><path fill="url(#SVGID_1_)" d="M11.5 2.5v-1h-1v1h-5v-1h-1v1h-3v12h13v-12h-3zm2 11h-11v-7h11v7zm-11-8v-2h2v1h1v-1h5v1h1v-1h2v2h-11z"/><linearGradient id="SVGID_2_" x1="1.063" x2="12.34" y1="8" y2="8" gradientUnits="userSpaceOnUse"><stop offset="0" stop-color="#2B2F82"/><stop offset="1" stop-color="#BF509D"/></linearGradient><path fill="url(#SVGID_2_)" d="M5.5 7.5h1v1h-1z"/><linearGradient id="SVGID_3_" x1="1.063" x2="12.34" y1="8" y2="8" gradientUnits="userSpaceOnUse"><stop offset="0" stop-color="#2B2F82"/><stop offset="1" stop-color="#BF509D"/></linearGradient><path fill="url(#SVGID_3_)" d="M7.5 7.5h1v1h-1z"/><linearGradient id="SVGID_4_" x1="1.063" x2="12.34" y1="8" y2="8" gradientUnits="userSpaceOnUse"><stop offset="0" stop-color="#2B2F82"/><stop offset="1" stop-color="#BF509D"/></linearGradient><path fill="url(#SVGID_4_)" d="M9.5 7.5h1v1h-1z"/><linearGradient id="SVGID_5_" x1="1.063" x2="12.34" y1="8" y2="8" gradientUnits="userSpaceOnUse"><stop offset="0" stop-color="#2B2F82"/><stop offset="1" stop-color="#BF509D"/></linearGradient><path fill="url(#SVGID_5_)" d="M11.5 7.5h1v1h-1z"/><linearGradient id="SVGID_6_" x1="1.063" x2="12.34" y1="10" y2="10" gradientUnits="userSpaceOnUse"><stop offset="0" stop-color="#2B2F82"/><stop offset="1" stop-color="#BF509D"/></linearGradient><path fill="url(#SVGID_6_)" d="M3.5 9.5h1v1h-1z"/><linearGradient id="SVGID_7_" x1="1.063" x2="12.34" y1="10" y2="10" gradientUnits="userSpaceOnUse"><stop offset="0" stop-color="#2B2F82"/><stop offset="1" stop-color="#BF509D"/></linearGradient><path fill="url(#SVGID_7_)" d="M5.5 9.5h1v1h-1z"/><linearGradient id="SVGID_8_" x1="1.063" x2="12.34" y1="10" y2="10" gradientUnits="userSpaceOnUse"><stop offset="0" stop-color="#2B2F82"/><stop offset="1" stop-color="#BF509D"/></linearGradient><path fill="url(#SVGID_8_)" d="M7.5 9.5h1v1h-1z"/><linearGradient id="SVGID_9_" x1="1.063" x2="12.34" y1="10" y2="10" gradientUnits="userSpaceOnUse"><stop offset="0" stop-color="#2B2F82"/><stop offset="1" stop-color="#BF509D"/></linearGradient><path fill="url(#SVGID_9_)" d="M9.5 9.5h1v1h-1z"/><linearGradient id="SVGID_10_" x1="1.063" x2="12.34" y1="10" y2="10" gradientUnits="userSpaceOnUse"><stop offset="0" stop-color="#2B2F82"/><stop offset="1" stop-color="#BF509D"/></linearGradient><path fill="url(#SVGID_10_)" d="M11.5 9.5h1v1h-1z"/><linearGradient id="SVGID_11_" x1="1.063" x2="12.34" y1="12" y2="12" gradientUnits="userSpaceOnUse"><stop offset="0" stop-color="#2B2F82"/><stop offset="1" stop-color="#BF509D"/></linearGradient><path fill="url(#SVGID_11_)" d="M3.5 11.5h1v1h-1z"/><linearGradient id="SVGID_12_" x1="1.063" x2="12.34" y1="12" y2="12" gradientUnits="userSpaceOnUse"><stop offset="0" stop-color="#2B2F82"/><stop offset="1" stop-color="#BF509D"/></linearGradient><path fill="url(#SVGID_12_)" d="M5.5 11.5h1v1h-1z"/><linearGradient id="SVGID_13_" x1="1.063" x2="12.34" y1="12" y2="12" gradientUnits="userSpaceOnUse"><stop offset="0" stop-color="#2B2F82"/><stop offset="1" stop-color="#BF509D"/></linearGradient><path fill="url(#SVGID_13_)" d="M7.5 11.5h1v1h-1z"/></svg>