<?xml version="1.0" encoding="UTF-8"?><svg xmlns="http://www.w3.org/2000/svg" xmlns:xlink="http://www.w3.org/1999/xlink" version="1.1" x="0px" y="0px" viewBox="0 0 24 24" xml:space="preserve"><style type="text/css">.st0{fill:#FFFFFF;} .st1{fill:#CCE7FF;} .st2{fill:none;stroke:#1078FF;stroke-linecap:round;stroke-linejoin:round;stroke-miterlimit:10;} .st3{fill:none;stroke:#1078FF;stroke-linejoin:round;stroke-miterlimit:10;} .st4{fill:none;stroke:#1078FF;stroke-linecap:round;stroke-miterlimit:10;} .st5{fill:none;}</style><g id="Duotone"><path class="st0" fill="#FFF" d="M12 23.5L4.5 11V5L12 .5 19.5 5v6z"/><path class="st1" fill="#CCE7FF" d="M12 .5v4l3.5 2.1v3.8L12 12.5v11L19.5 11V5z"/><path class="st1" d="M15.5 6.6c0-.1-7 3.9-7 3.9l3.5 2.1 3.5-2.1V6.6z" fill="#CCE7FF"/><path class="st2" fill="none" stroke="#1078FF" stroke-linecap="round" stroke-linejoin="round" stroke-miterlimit="10" d="M12 23.5L4.5 11V5L12 .5 19.5 5v6z"/><path class="st2" fill="none" stroke="#1078FF" stroke-linecap="round" stroke-linejoin="round" stroke-miterlimit="10" d="M8.5 6.6L12 4.5l3.5 2.1v3.8L12 12.5l-3.5-2.1z"/></g><path class="st5" fill="none" d="M0 0h24v24H0z" id="Frames-24px"/><metadata><rdf:RDF xmlns:rdf="http://www.w3.org/1999/02/22-rdf-syntax-ns#" xmlns:rdfs="http://www.w3.org/2000/01/rdf-schema#" xmlns:dc="http://purl.org/dc/elements/1.1/"><rdf:Description about="https://iconscout.com/legal#licenses" dc:title="location" dc:description="location" dc:publisher="Iconscout" dc:date="2017-09-21" dc:format="image/svg+xml" dc:language="en"><dc:creator><rdf:Bag><rdf:li>Vincent Le Moign</rdf:li></rdf:Bag></dc:creator></rdf:Description></rdf:RDF></metadata></svg>